<svg height="496pt" viewBox="0 -1 496 496" width="496pt" xmlns="http://www.w3.org/2000/svg"><path d="m472 317.621094h-38.902344c9.207032-9.480469 14.902344-22.382813 14.902344-36.605469 0-14.53125-6.097656-28.554687-16.710938-38.472656l-48.121093-44.914063c5.710937-15.152344 8.832031-31.328125 8.832031-48.007812 0-36.328125-14.152344-70.480469-39.832031-96.167969l-5.65625-5.65625-75.734375 75.738281-55.035156-38.21875c-.574219-5.230468-2.757813-10.320312-6.765626-14.328125-9.359374-9.359375-24.578124-9.359375-33.9375 0-9.359374 9.363281-9.359374 24.578125 0 33.9375 4 4 9.082032 6.183594 14.304688 6.761719l38.046875 55.230469-73.199219 73.199219 5.65625 5.65625c25.671875 25.695312 59.824219 39.847656 96.152344 39.847656 19.792969 0 38.878906-4.335938 56.367188-12.320313l44.320312 44.320313h-332.6875c-13.230469 0-24 10.769531-24 24v96c0 13.234375 10.769531 24 24 24h8v8c0 13.234375 10.769531 24 24 24h384c13.230469 0 24-10.765625 24-24v-8h8c13.230469 0 24-10.765625 24-24v-96c0-13.230469-10.769531-24-24-24zm-285.65625-235.3125c1.558594-1.558594 3.609375-2.335938 5.65625-2.335938s4.097656.777344 5.65625 2.335938c3.121094 3.121094 3.121094 8.195312 0 11.3125-3.128906 3.128906-8.183594 3.128906-11.3125 0-3.121094-3.117188-3.121094-8.191406 0-11.3125zm19.511719 25.167968c1.082031-.765624 2.144531-1.566406 3.113281-2.535156s1.773438-2.03125 2.542969-3.113281l47.953125 33.027344-20.5625 20.558593zm-28.863281 132.464844 169.328124-169.328125c19.199219 21.871094 29.679688 49.632813 29.679688 79.007813 0 32.058594-12.488281 62.183594-35.152344 84.847656-22.664062 22.664062-52.792968 35.152344-84.847656 35.152344-29.375 0-57.136719-10.480469-79.007812-29.679688zm191.59375 66.953125-41.472657-41.472656c8.957031-5.527344 17.414063-12.007813 25.046875-19.640625 9.777344-9.773438 17.855469-20.785156 24.144532-32.664062l44.0625 41.121093c7.394531 6.902344 11.632812 16.664063 11.632812 26.777344 0 20.183594-16.425781 36.605469-36.609375 36.605469h-.910156c-9.640625 0-19.074219-3.902344-25.894531-10.726563zm79.414062 162.726563c0 4.417968-3.585938 8-8 8h-384c-4.414062 0-8-3.582032-8-8v-8h400zm32-32c0 4.417968-3.585938 8-8 8h-448c-4.414062 0-8-3.582032-8-8v-96c0-4.414063 3.585938-8 8-8h448c4.414062 0 8 3.585937 8 8zm0 0"/><path d="m424 349.621094c-22.054688 0-40 17.945312-40 40 0 22.058594 17.945312 40 40 40s40-17.941406 40-40c0-22.054688-17.945312-40-40-40zm8 62.527344v-30.527344h-16v30.527344c-9.289062-3.308594-16-12.109376-16-22.527344 0-13.230469 10.769531-24 24-24s24 10.769531 24 24c0 10.417968-6.710938 19.21875-16 22.527344zm0 0"/><path d="m32 429.621094h48v-80h-48zm16-64h16v48h-16zm0 0"/><path d="m96 429.621094h48v-80h-48zm16-64h16v48h-16zm0 0"/><path d="m192 429.621094h144v-80h-144zm16-64h112v48h-112zm0 0"/><path d="m160 349.621094h16v16h-16zm0 0"/><path d="m160 381.621094h16v16h-16zm0 0"/><path d="m160 413.621094h16v16h-16zm0 0"/><path d="m352 349.621094h16v16h-16zm0 0"/><path d="m352 381.621094h16v16h-16zm0 0"/><path d="m352 413.621094h16v16h-16zm0 0"/><path d="m220.28125 59.679688 11.3125-11.3125c-21.832031-21.832032-57.363281-21.832032-79.1875 0-10.574219 10.574218-16.40625 24.640624-16.40625 39.597656 0 14.960937 5.832031 29.023437 16.40625 39.59375l11.3125-11.3125c-7.550781-7.550782-11.71875-17.601563-11.71875-28.28125 0-10.6875 4.167969-20.734375 11.71875-28.285156 15.59375-15.59375 40.96875-15.59375 56.5625 0zm0 0"/><path d="m141.089844 138.878906c-28.074219-28.082031-28.074219-73.753906 0-101.832031 28.078125-28.082031 73.75-28.082031 101.832031 0l11.308594-11.3125c-34.308594-34.3125-90.140625-34.3125-124.453125 0s-34.3125 90.144531 0 124.457031zm0 0"/><path d="m416 277.621094c0-13.230469-10.769531-24-24-24s-24 10.769531-24 24c0 13.234375 10.769531 24 24 24s24-10.765625 24-24zm-24 8c-4.414062 0-8-3.582032-8-8 0-4.414063 3.585938-8 8-8s8 3.585937 8 8c0 4.417968-3.585938 8-8 8zm0 0"/><path d="m344 149.621094c0 23.503906-9.160156 45.601562-25.777344 62.21875-16.613281 16.621094-38.71875 25.78125-62.222656 25.78125-2.472656 0-4.910156-.101563-7.34375-.304688l-1.3125 15.953125c2.863281.234375 5.753906.351563 8.65625.351563 27.785156 0 53.894531-10.824219 73.535156-30.472656 19.640625-19.628907 30.464844-45.742188 30.464844-73.527344zm0 0"/></svg>